# xmcd
#
# Track frame offsets:
#      151
#      12707
#      30027
#      48813
#      63488
#      79194
#      92685
#      105979
#      119835
#      136460
# 
# Disc length: 2076 seconds
#
# Revision: 2
# Processed by: cddbd v1.4PL0 Copyright (c) Steve Scherf et al.
#
# Submitted via: FreeRIP 1.21
#
DISCID=7b081a0a
DTITLE=Doug Meier - Candlelights and Bubblebath
DYEAR=1996
DGENRE=Country
TTITLE0=Boone's Wine, Strawberry Hill
TTITLE1=Candlelights and Bubblebath
TTITLE2=Her Loss is My Pain
TTITLE3=Lay Your Heart on Me
TTITLE4=Don't It Make You Wanna Smile?
TTITLE5=Could Not, Would Not, Shouldn't be
TTITLE6=I Love You Twice As Much
TTITLE7=Doin' Heart Time
TTITLE8=I Ain't Gonna Cry Anymore
TTITLE9=Little Tommy's Prayer
EXTD=
EXTT0=
EXTT1=
EXTT2=
EXTT3=
EXTT4=
EXTT5=
EXTT6=
EXTT7=
EXTT8=
EXTT9=
PLAYORDER=
